<svg width="84" height="84" viewBox="0 0 84 84" fill="none" xmlns="http://www.w3.org/2000/svg">
<circle cx="42" cy="42" r="42" fill="black"/>
<path d="M70.5 41C70.5 58.7847 58.2774 72.5 44 72.5C29.7226 72.5 17.5 58.7847 17.5 41C17.5 23.2153 29.7226 9.5 44 9.5C58.2774 9.5 70.5 23.2153 70.5 41Z" stroke="#fff" stroke-width="5"/>
<mask id="path-3-inside-1_0_1" fill="white">
<path d="M44.1299 74.9291C39.527 75.2358 34.9128 74.545 30.585 72.9011C26.2572 71.2573 22.312 68.6969 19.0038 65.3852C15.6957 62.0736 13.0981 58.0842 11.3786 53.6744C9.65917 49.2647 8.85607 44.5325 9.02114 39.7833C9.1862 35.034 10.3158 30.3732 12.3369 26.1014C14.3581 21.8297 17.226 18.0419 20.7556 14.9825C24.2852 11.9232 28.3981 9.6601 32.8289 8.33938C37.2597 7.01866 41.9101 6.66961 46.4799 7.31475L46.1079 10.1116C41.9175 9.52006 37.6533 9.84012 33.5904 11.0512C29.5274 12.2622 25.7561 14.3374 22.5195 17.1428C19.283 19.9481 16.6532 23.4214 14.7999 27.3385C12.9465 31.2555 11.9107 35.5294 11.7594 39.8843C11.608 44.2392 12.3444 48.5785 13.9211 52.6221C15.4978 56.6657 17.8797 60.3239 20.9132 63.3605C23.9467 66.3972 27.5643 68.745 31.5328 70.2524C35.5012 71.7597 39.7323 72.3932 43.953 72.112L44.1299 74.9291Z"/>
</mask>
<path d="M44.1299 74.9291C39.527 75.2358 34.9128 74.545 30.585 72.9011C26.2572 71.2573 22.312 68.6969 19.0038 65.3852C15.6957 62.0736 13.0981 58.0842 11.3786 53.6744C9.65917 49.2647 8.85607 44.5325 9.02114 39.7833C9.1862 35.034 10.3158 30.3732 12.3369 26.1014C14.3581 21.8297 17.226 18.0419 20.7556 14.9825C24.2852 11.9232 28.3981 9.6601 32.8289 8.33938C37.2597 7.01866 41.9101 6.66961 46.4799 7.31475L46.1079 10.1116C41.9175 9.52006 37.6533 9.84012 33.5904 11.0512C29.5274 12.2622 25.7561 14.3374 22.5195 17.1428C19.283 19.9481 16.6532 23.4214 14.7999 27.3385C12.9465 31.2555 11.9107 35.5294 11.7594 39.8843C11.608 44.2392 12.3444 48.5785 13.9211 52.6221C15.4978 56.6657 17.8797 60.3239 20.9132 63.3605C23.9467 66.3972 27.5643 68.745 31.5328 70.2524C35.5012 71.7597 39.7323 72.3932 43.953 72.112L44.1299 74.9291Z" stroke="#fff" stroke-width="8" mask="url(#path-3-inside-1_0_1)"/>
<mask id="path-4-inside-2_0_1" fill="white">
<path d="M27.7572 60.9937C27.2649 61.0208 26.7714 60.9599 26.3086 60.8148C25.8457 60.6698 25.4237 60.4438 25.0699 60.1516C24.7161 59.8594 24.4383 59.5074 24.2544 59.1183C24.0705 58.7292 23.9846 58.3117 24.0023 57.8926C24.0199 57.4736 24.1407 57.0623 24.3569 56.6854C24.5731 56.3085 24.8798 55.9743 25.2573 55.7043C25.6348 55.4344 26.0747 55.2347 26.5485 55.1182C27.0224 55.0016 27.5198 54.9708 28.0085 55.0278L27.8468 56.0313C27.523 55.9936 27.1936 56.014 26.8797 56.0912C26.5658 56.1684 26.2745 56.3006 26.0244 56.4794C25.7744 56.6582 25.5712 56.8796 25.428 57.1293C25.2849 57.3789 25.2048 57.6513 25.1931 57.9289C25.1815 58.2065 25.2383 58.483 25.3602 58.7407C25.482 58.9985 25.666 59.2316 25.9003 59.4252C26.1347 59.6187 26.4142 59.7684 26.7208 59.8644C27.0273 59.9605 27.3542 60.0009 27.6803 59.983L27.7572 60.9937Z"/>
</mask>
<path d="M27.7572 60.9937C27.2649 61.0208 26.7714 60.9599 26.3086 60.8148C25.8457 60.6698 25.4237 60.4438 25.0699 60.1516C24.7161 59.8594 24.4383 59.5074 24.2544 59.1183C24.0705 58.7292 23.9846 58.3117 24.0023 57.8926C24.0199 57.4736 24.1407 57.0623 24.3569 56.6854C24.5731 56.3085 24.8798 55.9743 25.2573 55.7043C25.6348 55.4344 26.0747 55.2347 26.5485 55.1182C27.0224 55.0016 27.5198 54.9708 28.0085 55.0278L27.8468 56.0313C27.523 55.9936 27.1936 56.014 26.8797 56.0912C26.5658 56.1684 26.2745 56.3006 26.0244 56.4794C25.7744 56.6582 25.5712 56.8796 25.428 57.1293C25.2849 57.3789 25.2048 57.6513 25.1931 57.9289C25.1815 58.2065 25.2383 58.483 25.3602 58.7407C25.482 58.9985 25.666 59.2316 25.9003 59.4252C26.1347 59.6187 26.4142 59.7684 26.7208 59.8644C27.0273 59.9605 27.3542 60.0009 27.6803 59.983L27.7572 60.9937Z" stroke="#fff" stroke-width="4" mask="url(#path-4-inside-2_0_1)"/>
<path d="M38.5 58C38.5 59.4414 37.4817 60.5 36.3529 60.5C35.2241 60.5 34.2059 59.4414 34.2059 58C34.2059 56.5586 35.2241 55.5 36.3529 55.5C37.4817 55.5 38.5 56.5586 38.5 58Z" fill="white" stroke="#fff"/>
<line x1="27" y1="60.5" x2="36.7059" y2="60.5" stroke="#fff"/>
<line x1="27" y1="55.5" x2="36.7059" y2="55.5" stroke="#fff"/>
<mask id="path-8-inside-3_0_1" fill="white">
<path d="M42.7572 66.9937C42.2649 67.0208 41.7714 66.9599 41.3086 66.8148C40.8457 66.6698 40.4237 66.4438 40.0699 66.1516C39.7161 65.8594 39.4383 65.5074 39.2544 65.1183C39.0705 64.7292 38.9846 64.3117 39.0023 63.8926C39.0199 63.4736 39.1407 63.0623 39.3569 62.6854C39.5731 62.3085 39.8798 61.9743 40.2573 61.7043C40.6348 61.4344 41.0747 61.2347 41.5485 61.1182C42.0224 61.0016 42.5198 60.9708 43.0085 61.0278L42.8468 62.0313C42.523 61.9936 42.1936 62.014 41.8797 62.0912C41.5658 62.1684 41.2745 62.3006 41.0244 62.4794C40.7744 62.6582 40.5712 62.8796 40.428 63.1293C40.2849 63.3789 40.2048 63.6513 40.1931 63.9289C40.1815 64.2065 40.2383 64.483 40.3602 64.7407C40.482 64.9985 40.666 65.2316 40.9003 65.4252C41.1347 65.6187 41.4142 65.7684 41.7208 65.8644C42.0273 65.9605 42.3542 66.0009 42.6803 65.983L42.7572 66.9937Z"/>
</mask>
<path d="M42.7572 66.9937C42.2649 67.0208 41.7714 66.9599 41.3086 66.8148C40.8457 66.6698 40.4237 66.4438 40.0699 66.1516C39.7161 65.8594 39.4383 65.5074 39.2544 65.1183C39.0705 64.7292 38.9846 64.3117 39.0023 63.8926C39.0199 63.4736 39.1407 63.0623 39.3569 62.6854C39.5731 62.3085 39.8798 61.9743 40.2573 61.7043C40.6348 61.4344 41.0747 61.2347 41.5485 61.1182C42.0224 61.0016 42.5198 60.9708 43.0085 61.0278L42.8468 62.0313C42.523 61.9936 42.1936 62.014 41.8797 62.0912C41.5658 62.1684 41.2745 62.3006 41.0244 62.4794C40.7744 62.6582 40.5712 62.8796 40.428 63.1293C40.2849 63.3789 40.2048 63.6513 40.1931 63.9289C40.1815 64.2065 40.2383 64.483 40.3602 64.7407C40.482 64.9985 40.666 65.2316 40.9003 65.4252C41.1347 65.6187 41.4142 65.7684 41.7208 65.8644C42.0273 65.9605 42.3542 66.0009 42.6803 65.983L42.7572 66.9937Z" stroke="#fff" stroke-width="4" mask="url(#path-8-inside-3_0_1)"/>
<path d="M53.5 64C53.5 65.4414 52.4817 66.5 51.3529 66.5C50.2241 66.5 49.2059 65.4414 49.2059 64C49.2059 62.5586 50.2241 61.5 51.3529 61.5C52.4817 61.5 53.5 62.5586 53.5 64Z" fill="white" stroke="#fff"/>
<line x1="42" y1="66.5" x2="51.7059" y2="66.5" stroke="#fff"/>
<line x1="42" y1="61.5" x2="51.7059" y2="61.5" stroke="#fff"/>
<mask id="path-12-inside-4_0_1" fill="white">
<path d="M53.7572 60.9937C53.2649 61.0208 52.7714 60.9599 52.3086 60.8148C51.8457 60.6698 51.4237 60.4438 51.0699 60.1516C50.7161 59.8594 50.4383 59.5074 50.2544 59.1183C50.0705 58.7292 49.9846 58.3117 50.0023 57.8926C50.0199 57.4736 50.1407 57.0623 50.3569 56.6854C50.5731 56.3085 50.8798 55.9743 51.2573 55.7043C51.6348 55.4344 52.0747 55.2347 52.5485 55.1182C53.0224 55.0016 53.5198 54.9708 54.0085 55.0278L53.8468 56.0313C53.523 55.9936 53.1936 56.014 52.8797 56.0912C52.5658 56.1684 52.2745 56.3006 52.0244 56.4794C51.7744 56.6582 51.5712 56.8796 51.428 57.1293C51.2849 57.3789 51.2048 57.6513 51.1931 57.9289C51.1815 58.2065 51.2383 58.483 51.3602 58.7407C51.482 58.9985 51.666 59.2316 51.9003 59.4252C52.1347 59.6187 52.4142 59.7684 52.7208 59.8644C53.0273 59.9605 53.3542 60.0009 53.6803 59.983L53.7572 60.9937Z"/>
</mask>
<path d="M53.7572 60.9937C53.2649 61.0208 52.7714 60.9599 52.3086 60.8148C51.8457 60.6698 51.4237 60.4438 51.0699 60.1516C50.7161 59.8594 50.4383 59.5074 50.2544 59.1183C50.0705 58.7292 49.9846 58.3117 50.0023 57.8926C50.0199 57.4736 50.1407 57.0623 50.3569 56.6854C50.5731 56.3085 50.8798 55.9743 51.2573 55.7043C51.6348 55.4344 52.0747 55.2347 52.5485 55.1182C53.0224 55.0016 53.5198 54.9708 54.0085 55.0278L53.8468 56.0313C53.523 55.9936 53.1936 56.014 52.8797 56.0912C52.5658 56.1684 52.2745 56.3006 52.0244 56.4794C51.7744 56.6582 51.5712 56.8796 51.428 57.1293C51.2849 57.3789 51.2048 57.6513 51.1931 57.9289C51.1815 58.2065 51.2383 58.483 51.3602 58.7407C51.482 58.9985 51.666 59.2316 51.9003 59.4252C52.1347 59.6187 52.4142 59.7684 52.7208 59.8644C53.0273 59.9605 53.3542 60.0009 53.6803 59.983L53.7572 60.9937Z" stroke="#fff" stroke-width="4" mask="url(#path-12-inside-4_0_1)"/>
<path d="M64.5 58C64.5 59.4414 63.4817 60.5 62.3529 60.5C61.2241 60.5 60.2059 59.4414 60.2059 58C60.2059 56.5586 61.2241 55.5 62.3529 55.5C63.4817 55.5 64.5 56.5586 64.5 58Z" fill="white" stroke="#fff"/>
<line x1="53" y1="60.5" x2="62.7059" y2="60.5" stroke="#fff"/>
<line x1="53" y1="55.5" x2="62.7059" y2="55.5" stroke="#fff"/>
</svg>
