<svg width="84" height="84" viewBox="0 0 84 84" fill="none" xmlns="http://www.w3.org/2000/svg">
<circle cx="42" cy="42" r="42" fill="black"/>
<path d="M72.5 42C72.5 59.7847 60.2774 73.5 46 73.5C31.7226 73.5 19.5 59.7847 19.5 42C19.5 24.2153 31.7226 10.5 46 10.5C60.2774 10.5 72.5 24.2153 72.5 42Z" stroke="#fff" stroke-width="5"/>
<mask id="path-3-inside-1_17_68" fill="white">
<path d="M44.1299 75.9291C39.527 76.2358 34.9128 75.545 30.585 73.9011C26.2572 72.2573 22.312 69.6969 19.0038 66.3852C15.6957 63.0736 13.0981 59.0842 11.3786 54.6744C9.65917 50.2647 8.85607 45.5325 9.02114 40.7833C9.1862 36.034 10.3158 31.3732 12.3369 27.1014C14.3581 22.8297 17.226 19.0419 20.7556 15.9825C24.2852 12.9232 28.3981 10.6601 32.8289 9.33938C37.2597 8.01866 41.9101 7.66961 46.4799 8.31475L45.9135 12.5731C41.9214 12.0095 37.859 12.3144 33.9883 13.4682C30.1176 14.622 26.5246 16.5989 23.4412 19.2716C20.3578 21.9442 17.8525 25.2531 16.0868 28.9848C14.3211 32.7166 13.3344 36.7882 13.1902 40.9371C13.046 45.086 13.7476 49.2199 15.2496 53.0722C16.7517 56.9245 19.0209 60.4096 21.9109 63.3026C24.8009 66.1956 28.2474 68.4323 32.028 69.8683C35.8087 71.3044 39.8396 71.9079 43.8606 71.6399L44.1299 75.9291Z"/>
</mask>
<path d="M44.1299 75.9291C39.527 76.2358 34.9128 75.545 30.585 73.9011C26.2572 72.2573 22.312 69.6969 19.0038 66.3852C15.6957 63.0736 13.0981 59.0842 11.3786 54.6744C9.65917 50.2647 8.85607 45.5325 9.02114 40.7833C9.1862 36.034 10.3158 31.3732 12.3369 27.1014C14.3581 22.8297 17.226 19.0419 20.7556 15.9825C24.2852 12.9232 28.3981 10.6601 32.8289 9.33938C37.2597 8.01866 41.9101 7.66961 46.4799 8.31475L45.9135 12.5731C41.9214 12.0095 37.859 12.3144 33.9883 13.4682C30.1176 14.622 26.5246 16.5989 23.4412 19.2716C20.3578 21.9442 17.8525 25.2531 16.0868 28.9848C14.3211 32.7166 13.3344 36.7882 13.1902 40.9371C13.046 45.086 13.7476 49.2199 15.2496 53.0722C16.7517 56.9245 19.0209 60.4096 21.9109 63.3026C24.8009 66.1956 28.2474 68.4323 32.028 69.8683C35.8087 71.3044 39.8396 71.9079 43.8606 71.6399L44.1299 75.9291Z" stroke="#fff" stroke-width="10" mask="url(#path-3-inside-1_17_68)"/>
<mask id="path-4-inside-2_17_68" fill="white">
<path d="M4.14141 52.9906C3.73871 53.0444 3.33632 52.8677 2.95826 52.4711C2.5802 52.0744 2.23424 51.466 1.94104 50.682C1.64783 49.8981 1.4134 48.9548 1.25175 47.9084C1.09009 46.862 1.00453 45.734 1.00018 44.5918C0.995819 43.4497 1.07276 42.3167 1.22639 41.2607C1.38003 40.2047 1.60721 39.2472 1.89437 38.4455C2.18153 37.6438 2.52277 37.0143 2.89771 36.5946C3.27265 36.1749 3.67361 35.9736 4.07662 36.0028L4.05824 38.0411C3.7519 38.0189 3.44713 38.1719 3.16213 38.491C2.87713 38.81 2.61775 39.2885 2.39948 39.8979C2.1812 40.5072 2.00852 41.235 1.89174 42.0377C1.77496 42.8405 1.71647 43.7016 1.71979 44.5698C1.7231 45.438 1.78813 46.2954 1.91101 47.0908C2.03388 47.8861 2.21208 48.6032 2.43495 49.1991C2.65782 49.795 2.92079 50.2575 3.20816 50.5589C3.49552 50.8604 3.80139 50.9947 4.10749 50.9538L4.14141 52.9906Z"/>
</mask>
<path d="M4.14141 52.9906C3.73871 53.0444 3.33632 52.8677 2.95826 52.4711C2.5802 52.0744 2.23424 51.466 1.94104 50.682C1.64783 49.8981 1.4134 48.9548 1.25175 47.9084C1.09009 46.862 1.00453 45.734 1.00018 44.5918C0.995819 43.4497 1.07276 42.3167 1.22639 41.2607C1.38003 40.2047 1.60721 39.2472 1.89437 38.4455C2.18153 37.6438 2.52277 37.0143 2.89771 36.5946C3.27265 36.1749 3.67361 35.9736 4.07662 36.0028L4.05824 38.0411C3.7519 38.0189 3.44713 38.1719 3.16213 38.491C2.87713 38.81 2.61775 39.2885 2.39948 39.8979C2.1812 40.5072 2.00852 41.235 1.89174 42.0377C1.77496 42.8405 1.71647 43.7016 1.71979 44.5698C1.7231 45.438 1.78813 46.2954 1.91101 47.0908C2.03388 47.8861 2.21208 48.6032 2.43495 49.1991C2.65782 49.795 2.92079 50.2575 3.20816 50.5589C3.49552 50.8604 3.80139 50.9947 4.10749 50.9538L4.14141 52.9906Z" stroke="#fff" stroke-width="4" mask="url(#path-4-inside-2_17_68)"/>
<line x1="4" y1="37" x2="11" y2="37" stroke="#fff" stroke-width="2"/>
<line x1="4" y1="52" x2="11" y2="52" stroke="#fff" stroke-width="2"/>
</svg>
